<?xml version="1.0" encoding="UTF-8"?>
<svg id="begining_logo" xmlns="http://www.w3.org/2000/svg" version="1.1" viewBox="0 0 2817.3 1452.4">
  <!-- Generator: Adobe Illustrator 29.8.3, SVG Export Plug-In . SVG Version: 2.1.1 Build 3)  -->
  <defs>
    <style>
      .st0 {
        fill: aqua;
      }

      .st1 {
        fill: #fff;
      }

      .st2 {
        fill: #bbfffd;
      }
    </style>
  </defs>
  <g>
    <g>
      <path class="st1" d="M1262.1,1136.2c-.2,0-.4,0-.5-.2s-.2-.3-.2-.5v-18c0-.2,0-.4.2-.5s.3-.2.5-.2h7c1.4,0,2.5.2,3.6.7,1,.4,1.8,1.1,2.3,2,.6.9.8,2,.8,3.3s-.3,2.4-.8,3.3c-.6.9-1.3,1.5-2.3,2s-2.2.7-3.6.7h-4.9v6.9c0,.2,0,.3-.2.5s-.3.2-.5.2h-1.5ZM1264.2,1126.4h4.8c1.4,0,2.4-.3,3.1-.9s1-1.5,1-2.7-.3-2-1-2.7-1.7-.9-3.1-.9h-4.8v7.2h0Z"/>
      <path class="st1" d="M1279.5,1136.2c-.2,0-.3,0-.5-.2s-.2-.3-.2-.5v-18.3c0-.2,0-.3.2-.5.1-.1.3-.2.5-.2h1.3c.2,0,.4,0,.5.2s.2.3.2.5v18.3c0,.2,0,.3-.2.5s-.3.2-.5.2h-1.3Z"/>
      <path class="st1" d="M1289.5,1136.5c-.9,0-1.8-.2-2.5-.6s-1.4-.9-1.8-1.5c-.5-.6-.7-1.3-.7-2.1,0-1.3.5-2.3,1.6-3,1-.8,2.4-1.2,4-1.5l4.1-.6v-.8c0-.9-.2-1.6-.8-2.1s-1.3-.8-2.5-.8-1.5.2-2,.5-.9.8-1.1,1.3c-.1.3-.3.4-.6.4h-1.2c-.2,0-.3,0-.5-.2,0-.1-.2-.3-.2-.4,0-.3.1-.6.3-1s.5-.8,1-1.2c.4-.4,1-.7,1.7-1s1.5-.4,2.5-.4,2,.1,2.8.4c.8.3,1.3.7,1.8,1.1.4.5.8,1,.9,1.6s.3,1.2.3,1.8v8.9c0,.2,0,.3-.2.5s-.3.2-.5.2h-1.3c-.2,0-.4,0-.5-.2s-.2-.3-.2-.5v-1.2c-.2.3-.6.7-1,1-.4.3-.9.6-1.5.8-.6.2-1.3.3-2.2.3h0ZM1290.1,1134.4c.8,0,1.4-.2,2.1-.5s1.1-.8,1.5-1.5.5-1.5.5-2.6v-.8l-3.2.5c-1.3.2-2.3.5-2.9.9s-1,1-1,1.6.2.9.5,1.3c.3.3.7.6,1.2.8s.9.2,1.4.2h0Z"/>
      <path class="st1" d="M1306.5,1136.5c-1.3,0-2.4-.2-3.4-.8s-1.7-1.2-2.2-2.2c-.5-.9-.8-2.1-.8-3.4,0-.3,0-.6,0-1.1s0-.8,0-1.1c0-1.3.3-2.5.8-3.4.5-.9,1.2-1.7,2.2-2.2.9-.5,2.1-.8,3.4-.8s2,.2,2.8.4c.8.3,1.4.7,1.9,1.1s.9,1,1.1,1.5c.2.5.4,1,.4,1.5,0,.2,0,.3-.2.4s-.3.2-.5.2h-1.3c-.2,0-.3,0-.4-.1,0,0-.2-.2-.3-.4-.3-.9-.8-1.5-1.3-1.9-.6-.4-1.3-.6-2.1-.6s-2,.3-2.7,1-1.1,1.8-1.1,3.3c0,.7,0,1.3,0,1.9,0,1.5.4,2.6,1.1,3.3s1.6,1,2.7,1,1.6-.2,2.1-.6,1-1,1.3-1.9c0-.2.2-.3.3-.4,0,0,.2-.1.4-.1h1.3c.2,0,.3,0,.5.2s.2.3.2.5c0,.4,0,.8-.2,1.2-.2.4-.4.8-.7,1.2-.3.4-.7.8-1.2,1.1s-1.1.6-1.7.8-1.4.3-2.3.3h0Z"/>
      <path class="st1" d="M1321.7,1136.5c-1.9,0-3.4-.6-4.6-1.8s-1.7-2.8-1.8-4.8c0-.2,0-.6,0-.9s0-.7,0-.9c0-1.3.4-2.4.9-3.4.5-1,1.3-1.7,2.2-2.3.9-.5,2-.8,3.3-.8s2.6.3,3.5.9c.9.6,1.7,1.4,2.2,2.5s.8,2.4.8,3.8v.5c0,.2,0,.4-.2.5s-.3.2-.5.2h-9.6v.2c0,.8.2,1.5.5,2.1.3.7.7,1.2,1.3,1.6.6.4,1.2.6,2,.6s1.2,0,1.7-.3.8-.4,1.1-.7c.3-.2.5-.4.6-.6.2-.2.3-.3.4-.4,0,0,.2,0,.4,0h1.3c.2,0,.3,0,.4.2s.2.2.2.4c0,.3-.2.6-.4,1-.3.4-.7.8-1.2,1.2-.5.4-1.1.7-1.9.9s-1.6.4-2.5.4h0ZM1317.9,1128h7.6c0-.9-.2-1.6-.5-2.3-.3-.6-.7-1.2-1.3-1.5-.6-.4-1.2-.6-2-.6s-1.5.2-2,.6-1,.9-1.3,1.5-.4,1.4-.4,2.2h0Z"/>
      <path class="st1" d="M1342.2,1136.5c-.9,0-1.8-.2-2.5-.6s-1.4-.9-1.8-1.5c-.5-.6-.7-1.3-.7-2.1,0-1.3.5-2.3,1.6-3,1-.8,2.4-1.2,4-1.5l4.1-.6v-.8c0-.9-.2-1.6-.8-2.1s-1.3-.8-2.5-.8-1.5.2-2,.5-.9.8-1.1,1.3c-.1.3-.3.4-.6.4h-1.2c-.2,0-.3,0-.5-.2,0-.1-.2-.3-.2-.4,0-.3.1-.6.3-1s.5-.8,1-1.2c.4-.4,1-.7,1.7-1s1.5-.4,2.5-.4,2,.1,2.8.4c.8.3,1.3.7,1.8,1.1.4.5.8,1,.9,1.6s.3,1.2.3,1.8v8.9c0,.2,0,.3-.2.5s-.3.2-.5.2h-1.3c-.2,0-.4,0-.5-.2s-.2-.3-.2-.5v-1.2c-.2.3-.6.7-1,1-.4.3-.9.6-1.5.8-.6.2-1.3.3-2.2.3h0ZM1342.8,1134.4c.8,0,1.4-.2,2.1-.5s1.1-.8,1.5-1.5.5-1.5.5-2.6v-.8l-3.2.5c-1.3.2-2.3.5-2.9.9s-1,1-1,1.6.2.9.5,1.3c.3.3.7.6,1.2.8s.9.2,1.4.2h0Z"/>
      <path class="st1" d="M1365.2,1136.2c-1,0-1.9-.2-2.5-.6-.6-.4-1.1-1-1.4-1.7-.3-.7-.4-1.6-.4-2.6v-7.3h-2.2c-.2,0-.3,0-.5-.2s-.2-.3-.2-.5v-.9c0-.2,0-.3.2-.5s.3-.2.5-.2h2.2v-4.6c0-.2,0-.3.2-.5.1-.1.3-.2.5-.2h1.3c.2,0,.3,0,.5.2s.2.3.2.5v4.6h3.4c.2,0,.4,0,.5.2s.2.3.2.5v.9c0,.2,0,.3-.2.5s-.3.2-.5.2h-3.4v7.1c0,.9.2,1.5.4,2,.3.5.8.7,1.6.7h1.7c.2,0,.3,0,.5.2s.2.3.2.5v1c0,.2,0,.3-.2.5s-.3.2-.5.2h-1.9Z"/>
      <path class="st1" d="M1370.8,1119.2c-.2,0-.3,0-.5-.2s-.2-.3-.2-.5v-1.5c0-.2,0-.3.2-.5s.3-.2.5-.2h1.7c.2,0,.3,0,.5.2.1.1.2.3.2.5v1.5c0,.2,0,.3-.2.5-.1.1-.3.2-.5.2h-1.7ZM1371,1136.2c-.2,0-.3,0-.5-.2s-.2-.3-.2-.5v-13.1c0-.2,0-.3.2-.5s.3-.2.5-.2h1.3c.2,0,.3,0,.5.2s.2.3.2.5v13.1c0,.2,0,.3-.2.5s-.3.2-.5.2h-1.3Z"/>
      <path class="st1" d="M1377.7,1136.2c-.2,0-.3,0-.5-.2s-.2-.3-.2-.5v-18.3c0-.2,0-.3.2-.5.1-.1.3-.2.5-.2h1.3c.2,0,.4,0,.5.2s.2.3.2.5v18.3c0,.2,0,.3-.2.5s-.3.2-.5.2h-1.3Z"/>
      <path class="st1" d="M1389.5,1136.5c-1.9,0-3.4-.6-4.6-1.8s-1.7-2.8-1.8-4.8c0-.2,0-.6,0-.9s0-.7,0-.9c0-1.3.4-2.4.9-3.4.5-1,1.3-1.7,2.2-2.3.9-.5,2-.8,3.3-.8s2.6.3,3.5.9c.9.6,1.7,1.4,2.2,2.5s.8,2.4.8,3.8v.5c0,.2,0,.4-.2.5s-.3.2-.5.2h-9.6v.2c0,.8.2,1.5.5,2.1.3.7.7,1.2,1.3,1.6.6.4,1.2.6,2,.6s1.2,0,1.7-.3.8-.4,1.1-.7c.3-.2.5-.4.6-.6.2-.2.3-.3.4-.4,0,0,.2,0,.4,0h1.3c.2,0,.3,0,.4.2s.2.2.2.4c0,.3-.2.6-.4,1-.3.4-.7.8-1.2,1.2-.5.4-1.1.7-1.9.9s-1.6.4-2.5.4h0ZM1385.7,1128h7.6c0-.9-.2-1.6-.5-2.3-.3-.6-.7-1.2-1.3-1.5-.6-.4-1.2-.6-2-.6s-1.5.2-2,.6-1,.9-1.3,1.5-.4,1.4-.4,2.2h0Z"/>
      <path class="st1" d="M1411,1136.2c-1,0-1.9-.2-2.5-.6-.6-.4-1.1-1-1.4-1.7-.3-.7-.4-1.6-.4-2.6v-7.3h-2.2c-.2,0-.3,0-.5-.2s-.2-.3-.2-.5v-.9c0-.2,0-.3.2-.5s.3-.2.5-.2h2.2v-4.6c0-.2,0-.3.2-.5.1-.1.3-.2.5-.2h1.3c.2,0,.3,0,.5.2s.2.3.2.5v4.6h3.4c.2,0,.4,0,.5.2s.2.3.2.5v.9c0,.2,0,.3-.2.5s-.3.2-.5.2h-3.4v7.1c0,.9.2,1.5.4,2,.3.5.8.7,1.6.7h1.7c.2,0,.3,0,.5.2s.2.3.2.5v1c0,.2,0,.3-.2.5s-.3.2-.5.2h-1.9Z"/>
      <path class="st1" d="M1422.1,1136.5c-1.4,0-2.6-.3-3.5-.8-.9-.5-1.7-1.3-2.2-2.2-.5-.9-.8-2-.8-3.2,0-.3,0-.7,0-1.2s0-.9,0-1.2c0-1.2.3-2.3.8-3.3.5-.9,1.2-1.7,2.2-2.2.9-.5,2.1-.8,3.5-.8s2.5.3,3.5.8,1.7,1.3,2.2,2.2.8,2,.8,3.3c0,.3,0,.7,0,1.2s0,.9,0,1.2c0,1.2-.3,2.3-.8,3.2s-1.2,1.7-2.2,2.2c-.9.5-2.1.8-3.5.8h0ZM1422.1,1134.4c1.1,0,2.1-.4,2.7-1.1.7-.7,1.1-1.8,1.1-3.2,0-.3,0-.6,0-1.1s0-.8,0-1.1c0-1.4-.4-2.5-1.1-3.2-.7-.7-1.6-1.1-2.7-1.1s-2.1.4-2.8,1.1-1.1,1.8-1.1,3.2c0,.3,0,.6,0,1.1s0,.8,0,1.1c0,1.4.4,2.5,1.1,3.2s1.6,1.1,2.8,1.1Z"/>
      <path class="st1" d="M1443.8,1136.5c-1,0-1.9-.1-2.7-.4s-1.3-.6-1.8-.9c-.5-.4-.8-.7-1-1.1-.2-.4-.3-.7-.4-.9,0-.2,0-.4.2-.5.2-.1.3-.2.4-.2h1.2c0,0,.2,0,.2,0,0,0,.2.1.3.2.2.3.5.5.8.8.3.3.7.5,1.1.6.4.2,1,.2,1.6.2.9,0,1.7-.2,2.3-.5s.9-.9.9-1.6-.1-.8-.4-1.1-.7-.5-1.3-.7-1.5-.4-2.6-.7c-1.1-.3-2-.6-2.6-.9-.6-.4-1.1-.8-1.4-1.3-.3-.5-.4-1.1-.4-1.8s.2-1.3.6-2c.4-.6,1-1.2,1.8-1.6.8-.4,1.8-.6,2.9-.6s1.8.1,2.5.4c.7.2,1.2.5,1.7.9.4.4.8.7,1,1.1.2.3.3.6.4.9,0,.2,0,.3-.2.5s-.3.2-.4.2h-1.2c-.1,0-.2,0-.3,0,0,0-.2-.1-.2-.2-.2-.2-.4-.5-.7-.7s-.6-.4-1-.6c-.4-.2-.9-.2-1.6-.2-.9,0-1.6.2-2.1.6s-.7.9-.7,1.5,0,.7.3.9c.2.3.6.5,1.2.8.6.2,1.4.5,2.5.7,1.2.2,2.2.6,2.9,1,.7.4,1.2.9,1.5,1.4s.4,1.2.4,1.8-.2,1.5-.7,2.1c-.4.6-1.1,1.2-2,1.5s-2,.6-3.3.6h0Z"/>
      <path class="st1" d="M1458.6,1136.5c-1.9,0-3.4-.6-4.6-1.8s-1.7-2.8-1.8-4.8c0-.2,0-.6,0-.9s0-.7,0-.9c0-1.3.4-2.4.9-3.4.5-1,1.3-1.7,2.2-2.3.9-.5,2-.8,3.3-.8s2.6.3,3.5.9c.9.6,1.7,1.4,2.2,2.5s.8,2.4.8,3.8v.5c0,.2,0,.4-.2.5s-.3.2-.5.2h-9.6v.2c0,.8.2,1.5.5,2.1.3.7.7,1.2,1.3,1.6.6.4,1.2.6,2,.6s1.2,0,1.7-.3.8-.4,1.1-.7c.3-.2.5-.4.6-.6.2-.2.3-.3.4-.4,0,0,.2,0,.4,0h1.3c.2,0,.3,0,.4.2s.2.2.2.4c0,.3-.2.6-.4,1-.3.4-.7.8-1.2,1.2-.5.4-1.1.7-1.9.9s-1.6.4-2.5.4h0ZM1454.8,1128h7.6c0-.9-.2-1.6-.5-2.3-.3-.6-.7-1.2-1.3-1.5-.6-.4-1.2-.6-2-.6s-1.5.2-2,.6-1,.9-1.3,1.5-.4,1.4-.4,2.2h0Z"/>
      <path class="st1" d="M1469,1136.2c-.2,0-.3,0-.5-.2s-.2-.3-.2-.5v-18.3c0-.2,0-.3.2-.5.1-.1.3-.2.5-.2h1.3c.2,0,.4,0,.5.2s.2.3.2.5v18.3c0,.2,0,.3-.2.5s-.3.2-.5.2h-1.3Z"/>
      <path class="st1" d="M1480.8,1136.5c-1.9,0-3.4-.6-4.6-1.8s-1.7-2.8-1.8-4.8c0-.2,0-.6,0-.9s0-.7,0-.9c0-1.3.4-2.4.9-3.4.5-1,1.3-1.7,2.2-2.3.9-.5,2-.8,3.3-.8s2.6.3,3.5.9c.9.6,1.7,1.4,2.2,2.5s.8,2.4.8,3.8v.5c0,.2,0,.4-.2.5s-.3.2-.5.2h-9.6v.2c0,.8.2,1.5.5,2.1.3.7.7,1.2,1.3,1.6.6.4,1.2.6,2,.6s1.2,0,1.7-.3.8-.4,1.1-.7c.3-.2.5-.4.6-.6.2-.2.3-.3.4-.4,0,0,.2,0,.4,0h1.3c.2,0,.3,0,.4.2s.2.2.2.4c0,.3-.2.6-.4,1-.3.4-.7.8-1.2,1.2-.5.4-1.1.7-1.9.9s-1.6.4-2.5.4h0ZM1477,1128h7.6c0-.9-.2-1.6-.5-2.3-.3-.6-.7-1.2-1.3-1.5-.6-.4-1.2-.6-2-.6s-1.5.2-2,.6-1,.9-1.3,1.5-.4,1.4-.4,2.2h0Z"/>
      <path class="st1" d="M1496.3,1136.5c-1.3,0-2.4-.2-3.4-.8s-1.7-1.2-2.2-2.2c-.5-.9-.8-2.1-.8-3.4,0-.3,0-.6,0-1.1s0-.8,0-1.1c0-1.3.3-2.5.8-3.4.5-.9,1.2-1.7,2.2-2.2.9-.5,2.1-.8,3.4-.8s2,.2,2.8.4c.8.3,1.4.7,1.9,1.1s.9,1,1.1,1.5c.2.5.4,1,.4,1.5,0,.2,0,.3-.2.4s-.3.2-.5.2h-1.3c-.2,0-.3,0-.4-.1,0,0-.2-.2-.3-.4-.3-.9-.8-1.5-1.3-1.9-.6-.4-1.3-.6-2.1-.6s-2,.3-2.7,1-1.1,1.8-1.1,3.3c0,.7,0,1.3,0,1.9,0,1.5.4,2.6,1.1,3.3s1.6,1,2.7,1,1.6-.2,2.1-.6,1-1,1.3-1.9c0-.2.2-.3.3-.4,0,0,.2-.1.4-.1h1.3c.2,0,.3,0,.5.2s.2.3.2.5c0,.4,0,.8-.2,1.2-.2.4-.4.8-.7,1.2-.3.4-.7.8-1.2,1.1s-1.1.6-1.7.8-1.4.3-2.3.3h0Z"/>
      <path class="st1" d="M1511.3,1136.2c-1,0-1.9-.2-2.5-.6-.6-.4-1.1-1-1.4-1.7-.3-.7-.4-1.6-.4-2.6v-7.3h-2.2c-.2,0-.3,0-.5-.2s-.2-.3-.2-.5v-.9c0-.2,0-.3.2-.5s.3-.2.5-.2h2.2v-4.6c0-.2,0-.3.2-.5.1-.1.3-.2.5-.2h1.3c.2,0,.3,0,.5.2s.2.3.2.5v4.6h3.4c.2,0,.4,0,.5.2s.2.3.2.5v.9c0,.2,0,.3-.2.5s-.3.2-.5.2h-3.4v7.1c0,.9.2,1.5.4,2,.3.5.8.7,1.6.7h1.7c.2,0,.3,0,.5.2s.2.3.2.5v1c0,.2,0,.3-.2.5s-.3.2-.5.2h-1.9Z"/>
      <path class="st1" d="M1530.7,1136.2c-.2,0-.3,0-.5-.2s-.2-.3-.2-.5v-18.3c0-.2,0-.3.2-.5.1-.1.3-.2.5-.2h1.3c.2,0,.4,0,.5.2s.2.3.2.5v18.3c0,.2,0,.3-.2.5s-.3.2-.5.2h-1.3Z"/>
      <path class="st1" d="M1540.8,1136.5c-.9,0-1.8-.2-2.5-.6s-1.4-.9-1.8-1.5c-.5-.6-.7-1.3-.7-2.1,0-1.3.5-2.3,1.6-3,1-.8,2.4-1.2,4-1.5l4.1-.6v-.8c0-.9-.2-1.6-.8-2.1s-1.3-.8-2.5-.8-1.5.2-2,.5-.9.8-1.1,1.3c-.1.3-.3.4-.6.4h-1.2c-.2,0-.3,0-.5-.2,0-.1-.2-.3-.2-.4,0-.3.1-.6.3-1s.5-.8,1-1.2c.4-.4,1-.7,1.7-1s1.5-.4,2.5-.4,2,.1,2.8.4c.8.3,1.3.7,1.8,1.1.4.5.8,1,.9,1.6s.3,1.2.3,1.8v8.9c0,.2,0,.3-.2.5s-.3.2-.5.2h-1.3c-.2,0-.4,0-.5-.2s-.2-.3-.2-.5v-1.2c-.2.3-.6.7-1,1-.4.3-.9.6-1.5.8-.6.2-1.3.3-2.2.3h0ZM1541.3,1134.4c.8,0,1.4-.2,2.1-.5s1.1-.8,1.5-1.5.5-1.5.5-2.6v-.8l-3.2.5c-1.3.2-2.3.5-2.9.9s-1,1-1,1.6.2.9.5,1.3c.3.3.7.6,1.2.8s.9.2,1.4.2h0Z"/>
      <path class="st1" d="M1552.6,1136.2c-.2,0-.3,0-.5-.2s-.2-.3-.2-.5v-13.1c0-.2,0-.3.2-.5s.3-.2.5-.2h1.3c.2,0,.3,0,.5.2s.2.3.2.5v1.2c.5-.6,1.1-1.1,1.8-1.5.7-.4,1.7-.6,2.8-.6s2.2.3,3.1.8c.8.5,1.5,1.2,1.9,2.2s.7,2,.7,3.2v7.8c0,.2,0,.3-.2.5s-.3.2-.5.2h-1.4c-.2,0-.3,0-.5-.2s-.2-.3-.2-.5v-7.6c0-1.3-.3-2.3-.9-3-.6-.7-1.6-1.1-2.8-1.1s-2.1.4-2.8,1.1-1,1.7-1,3v7.6c0,.2,0,.3-.2.5s-.3.2-.5.2h-1.4,0Z"/>
      <path class="st1" d="M1574.6,1142.3c-1.2,0-2.3-.2-3.1-.5-.8-.3-1.4-.7-1.9-1.2s-.8-.9-1-1.4c-.2-.5-.3-.8-.3-1.1,0-.2,0-.3.2-.5s.3-.2.5-.2h1.3c.2,0,.3,0,.4.1s.2.2.3.5c.1.3.3.6.5.9.2.3.6.6,1,.9s1.1.4,1.9.4,1.6-.1,2.2-.4c.6-.2,1-.6,1.3-1.2.3-.6.5-1.4.5-2.4v-1.9c-.4.6-1,1-1.7,1.4s-1.6.6-2.7.6-1.9-.2-2.7-.5-1.3-.8-1.8-1.5c-.5-.6-.8-1.3-1.1-2.1-.2-.8-.4-1.6-.4-2.5,0-.5,0-1,0-1.5,0-.9.2-1.7.4-2.5s.6-1.5,1.1-2.1c.5-.6,1.1-1.1,1.8-1.5.7-.4,1.6-.5,2.7-.5s2,.2,2.8.6c.7.4,1.3.9,1.8,1.5v-1.2c0-.2,0-.3.2-.5s.3-.2.5-.2h1.3c.2,0,.3,0,.5.2.1.1.2.3.2.5v13.4c0,1.2-.2,2.3-.6,3.3-.4,1-1.1,1.7-2,2.3-.9.6-2.2.8-3.8.8h0ZM1574.5,1134.1c.9,0,1.7-.2,2.2-.6.6-.4,1-1,1.2-1.6.3-.6.4-1.3.4-2,0-.3,0-.6,0-.9s0-.7,0-.9c0-.7-.2-1.3-.4-2-.3-.6-.7-1.2-1.2-1.6-.6-.4-1.3-.6-2.2-.6s-1.7.2-2.2.6c-.6.4-.9,1-1.2,1.6s-.4,1.4-.4,2.2c0,.5,0,1,0,1.5,0,.8.2,1.5.4,2.2s.6,1.2,1.2,1.6c.6.4,1.3.6,2.2.6h0Z"/>
      <path class="st1" d="M1590.5,1136.5c-1.2,0-2.2-.3-3-.8-.8-.5-1.4-1.3-1.9-2.2-.4-.9-.6-2-.6-3.2v-7.8c0-.2,0-.3.2-.5s.3-.2.5-.2h1.4c.2,0,.3,0,.5.2s.2.3.2.5v7.6c0,2.7,1.2,4.1,3.6,4.1s2.1-.4,2.8-1.1,1-1.7,1-3v-7.6c0-.2,0-.3.2-.5s.3-.2.5-.2h1.4c.2,0,.3,0,.4.2s.2.3.2.5v13.1c0,.2,0,.3-.2.5s-.3.2-.4.2h-1.3c-.2,0-.3,0-.5-.2s-.2-.3-.2-.5v-1.2c-.5.6-1.1,1.2-1.8,1.5-.7.4-1.6.6-2.8.6h0Z"/>
      <path class="st1" d="M1605.8,1136.5c-.9,0-1.8-.2-2.5-.6s-1.4-.9-1.8-1.5c-.5-.6-.7-1.3-.7-2.1,0-1.3.5-2.3,1.6-3,1-.8,2.4-1.2,4-1.5l4.1-.6v-.8c0-.9-.2-1.6-.8-2.1s-1.3-.8-2.5-.8-1.5.2-2,.5-.9.8-1.1,1.3c-.1.3-.3.4-.6.4h-1.2c-.2,0-.3,0-.5-.2,0-.1-.2-.3-.2-.4,0-.3.1-.6.3-1s.5-.8,1-1.2c.4-.4,1-.7,1.7-1s1.5-.4,2.5-.4,2,.1,2.8.4c.8.3,1.3.7,1.8,1.1.4.5.8,1,.9,1.6s.3,1.2.3,1.8v8.9c0,.2,0,.3-.2.5s-.3.2-.5.2h-1.3c-.2,0-.4,0-.5-.2s-.2-.3-.2-.5v-1.2c-.2.3-.6.7-1,1-.4.3-.9.6-1.5.8-.6.2-1.3.3-2.2.3h0ZM1606.4,1134.4c.8,0,1.4-.2,2.1-.5s1.1-.8,1.5-1.5.5-1.5.5-2.6v-.8l-3.2.5c-1.3.2-2.3.5-2.9.9s-1,1-1,1.6.2.9.5,1.3c.3.3.7.6,1.2.8s.9.2,1.4.2h0Z"/>
      <path class="st1" d="M1622.9,1142.3c-1.2,0-2.3-.2-3.1-.5-.8-.3-1.4-.7-1.9-1.2s-.8-.9-1-1.4c-.2-.5-.3-.8-.3-1.1,0-.2,0-.3.2-.5s.3-.2.5-.2h1.3c.2,0,.3,0,.4.1s.2.2.3.5c.1.3.3.6.5.9.2.3.6.6,1,.9s1.1.4,1.9.4,1.6-.1,2.2-.4c.6-.2,1-.6,1.3-1.2.3-.6.5-1.4.5-2.4v-1.9c-.4.6-1,1-1.7,1.4s-1.6.6-2.7.6-1.9-.2-2.7-.5-1.3-.8-1.8-1.5c-.5-.6-.8-1.3-1.1-2.1-.2-.8-.4-1.6-.4-2.5,0-.5,0-1,0-1.5,0-.9.2-1.7.4-2.5s.6-1.5,1.1-2.1c.5-.6,1.1-1.1,1.8-1.5.7-.4,1.6-.5,2.7-.5s2,.2,2.8.6c.7.4,1.3.9,1.8,1.5v-1.2c0-.2,0-.3.2-.5s.3-.2.5-.2h1.3c.2,0,.3,0,.5.2.1.1.2.3.2.5v13.4c0,1.2-.2,2.3-.6,3.3-.4,1-1.1,1.7-2,2.3-.9.6-2.2.8-3.8.8h0ZM1622.9,1134.1c.9,0,1.7-.2,2.2-.6.6-.4,1-1,1.2-1.6.3-.6.4-1.3.4-2,0-.3,0-.6,0-.9s0-.7,0-.9c0-.7-.2-1.3-.4-2-.3-.6-.7-1.2-1.2-1.6-.6-.4-1.3-.6-2.2-.6s-1.7.2-2.2.6c-.6.4-.9,1-1.2,1.6s-.4,1.4-.4,2.2c0,.5,0,1,0,1.5,0,.8.2,1.5.4,2.2s.6,1.2,1.2,1.6c.6.4,1.3.6,2.2.6h0Z"/>
      <path class="st1" d="M1639.2,1136.5c-1.9,0-3.4-.6-4.6-1.8s-1.7-2.8-1.8-4.8c0-.2,0-.6,0-.9s0-.7,0-.9c0-1.3.4-2.4.9-3.4.5-1,1.3-1.7,2.2-2.3.9-.5,2-.8,3.3-.8s2.6.3,3.5.9c.9.6,1.7,1.4,2.2,2.5s.8,2.4.8,3.8v.5c0,.2,0,.4-.2.5s-.3.2-.5.2h-9.6v.2c0,.8.2,1.5.5,2.1.3.7.7,1.2,1.3,1.6.6.4,1.2.6,2,.6s1.2,0,1.7-.3.8-.4,1.1-.7c.3-.2.5-.4.6-.6.2-.2.3-.3.4-.4,0,0,.2,0,.4,0h1.3c.2,0,.3,0,.4.2s.2.2.2.4c0,.3-.2.6-.4,1-.3.4-.7.8-1.2,1.2-.5.4-1.1.7-1.9.9s-1.6.4-2.5.4h0ZM1635.5,1128h7.6c0-.9-.2-1.6-.5-2.3-.3-.6-.7-1.2-1.3-1.5-.6-.4-1.2-.6-2-.6s-1.5.2-2,.6-1,.9-1.3,1.5-.4,1.4-.4,2.2h0Z"/>
    </g>
    <g>
      <path class="st0" d="M1224.8,1133.7c-.4,0-.8,0-1.1-.2-.2-.2-.3-.6-.3-.9,0-.3,0-.6,0-.8,0-.3.1-.6.2-.9l1-3.4c0-.3.2-.7.2-1,0-.4,0-.6,0-.8,0-.7-.3-1.3-.8-1.7-.6-.5-1.4-.7-2.2-.7-.6,0-1.1,0-1.7.3-.6.2-1.2.4-1.9.7l-.3,1.1c.2,0,.4-.1.7-.2.2,0,.5-.1.8-.1.4,0,.8,0,1.1.3.2.2.3.6.3.9,0,.3,0,.6,0,.8,0,.3-.1.6-.2.9l-1,3.4c0,.3-.1.6-.2,1,0,.3,0,.6,0,.8,0,.7.3,1.3.8,1.7.6.5,1.4.7,2.2.7.6,0,1.1,0,1.7-.2.5-.2,1.1-.4,1.9-.7l.3-1.1c-.2,0-.4.2-.7.2-.3,0-.6,0-.9,0h0Z"/>
      <path class="st0" d="M1225.8,1117.6c-.4-.4-1.1-.6-1.7-.6-.6,0-1.2.2-1.7.6-.8.7-.9,2-.2,2.8,0,0,.1.1.2.2.9.8,2.4.8,3.3,0,.8-.7.9-2,.2-2.8,0,0-.1-.1-.2-.2h0Z"/>
      <path class="st0" d="M1222.3,1107.8c-10.1,0-18.3,8.2-18.3,18.3s8.2,18.3,18.3,18.3,18.3-8.2,18.3-18.3-8.2-18.3-18.3-18.3ZM1222.3,1142.8c-9.2,0-16.7-7.5-16.7-16.7s7.5-16.7,16.7-16.7,16.7,7.5,16.7,16.7-7.5,16.7-16.7,16.7Z"/>
    </g>
  </g>
  <g>
    <path class="st0" d="M1416.7,551.7c5.6-.9,10.3,1.9,12.5,7,.9,2,.7,4,1.2,5.4,1.2,3,26.5,12.1,31,14.8,3.4.5,7.7-6.5,15.5-3.2,6.3,2.7,8.2,9.5,6.2,15.8-.9,2.8-5.1,4.6-5.2,7s3.1,13.1,3.6,17.3c2.1,16.3,0,30.6-3.7,46.5.4,2.8,4.7,4.3,5.5,7.9,2.3,10-5.6,18.7-15.6,14.6-2.7-1.1-3.6-4.1-6.4-3.7-4.4,3.3-28.8,11.5-30.7,14.2s-.7,5.5-2.8,8.6c-4.4,6.5-13.6,6.1-18.2,0-3-4-1.4-4.8-2.5-7.9s-27.6-12.6-31.8-14.9c-3-.2-4,3.1-7.2,4.1-9.8,3.1-18.3-7.6-13.6-16.4,1.1-2.1,4.9-3.7,5.1-6.2-5.2-18.6-5.6-35.2-2.5-54.1.4-2.7,2.6-7.8,2.5-9.9s-3.4-3.8-4.6-5.8c-5.8-9.6,3.4-20.4,14.2-17,2.3.7,3.9,4.1,5.7,3.9l32.1-15.5c-.3-6.1,3.2-11.4,9.5-12.5ZM1423.3,568.4c7.3-7.3-5.2-17.4-10.3-8.8-4.4,7.5,5.1,14,10.3,8.8ZM1397.7,594.2l12.4-22.1c-.1-.6-1.3-1.9-1.8-2.1-1.6-.7-28.8,13-32.3,15.4-.5,1.9,0,2.2,1.5,3.1,1.9,1.1,19,6.4,20.1,5.7ZM1460.6,584c-9.7-3.4-18.9-9.3-28.5-12.9-1-.4-4.2-2.3-4.7,0s10.7,19.7,13,23.2c1,.3,18.6-5.4,19.4-6.1,1.2-1,1.2-2.8.8-4.2ZM1435,596.3l-12.3-21.4h-7.7s-12.3,20.9-12.3,20.9l13.2,4.4v4.7c0,0-16.9-3.7-16.9-3.7-2.2,8.4-12,20.3-13.3,28.2s-.3,2.1.2,3.1l13.8,27.2c.8.5,11.3-3.5,13.6-3.7s2.2-.9,2.6.8c1.9,7.1-13.3,3.8-13.3,8.5s10.9,20,12.1,20.4c12,4,14.1-13.8,20.3-20.3.3-2-.3-1.1-1.3-1.5-3.5-1.4-7.5-1.8-11.1-3.2l-.9-4.3,16.2,2.4,13.8-28-13.8-29.2-16.2,3.4v-4.7c0,0,13.3-3.9,13.3-3.9ZM1362.4,580.3c-5.9,1.4-6.1,10.9-.7,12.7,12.8,4.2,13.8-15.7.7-12.7ZM1470,580.3c-7.5,2.2-4.1,15.5,4.3,13,7.4-2.2,5.5-15.9-4.3-13ZM1395,599.1c-4.8,0-15.1-6.4-18.8-6.5s-3.2,1.7-3.6,2.7c-2,4.4,8.1,22,9.1,27.6,2.2.5,1.5-.3,2.1-1.2,4.2-6.5,7-15.8,11.2-22.6ZM1455,623.9c1.1-6.7,10.2-21.5,10.3-27.3,0-1.6-1.8-3.1-3.1-3.8-2.8,1.5-19,4.8-19.5,6.9l12.3,24.2ZM1367.3,598.2h-2.7c-5.5,17.7-7.7,42.9-1.2,60.6,1.1,2.9,2,5.2,4.7,1.6l11.6-29.4-12.4-32.7ZM1473,661.9c4.6-19,6.4-36.9,1.5-56.1s-1.3-8.2-3.8-7.6l-12.9,31.9,11.6,31.8h3.6ZM1383.6,637.2c-2.5-.4-1.5.3-2,1.3-1.8,3.6-9.7,22.3-10,25.2s1.9,3.4,3.1,3.7,14.9-4.1,17.4-5.1c1.1-.4,2.2-.8,2.8-1.9l-11.3-23.3ZM1442.6,662c5.4-.4,19.6,9.6,22.4,2.8.6-1.6-2.7-9.3-3.6-11.6s-6-15.9-6.9-15.9l-11.9,24.7ZM1376.1,672.5l1.4,4.6,29.6,13.3,3.1-1.3-13-23.2-21.2,6.7ZM1460.6,672.5l-20.9-6.4-12.4,22.9,2.2,1.3c4.2-2.5,29.9-12.2,31-14.8s.4-2.6,0-3.1ZM1363.4,666.9c-8.5,1.5-6.8,16.1,3.4,14,8.4-1.7,5.1-15.5-3.4-14ZM1477.6,678.9c5.4-5.8-3.6-16.3-10-10-6.8,6.8,3.8,16.5,10,10ZM1415.7,690.7c-5,1.5-4.9,11,.2,12.7,12,4,13.6-16.7-.2-12.7Z"/>
    <rect class="st0" x="1416" y="612.5" width="5.7" height="34.3"/>
    <path class="st0" d="M1436,621v25.2c0,1.9-5.7,1.9-5.7,0v-25.2s5.7,0,5.7,0Z"/>
    <rect class="st0" x="1401.7" y="629.6" width="4.8" height="17.1"/>
  </g>
  <g>
    <path class="st2" d="M1204,450c-.5,0-.9-.2-1.2-.5-.3-.3-.5-.7-.5-1.2v-42.2c0-.5.2-.9.5-1.2.3-.3.7-.5,1.2-.5h16.9c4.2,0,7.9.7,10.8,2,3,1.4,5.3,3.4,6.9,6,1.6,2.6,2.5,5.9,2.6,9.7,0,1.9,0,3.6,0,5s0,3.1,0,4.9c-.2,4-1,7.4-2.6,10-1.5,2.6-3.8,4.6-6.7,5.9-2.9,1.3-6.5,1.9-10.7,1.9h-17.2ZM1214,440.6h6.9c1.9,0,3.4-.3,4.6-.9,1.2-.6,2.2-1.5,2.8-2.8.6-1.3,1-2.9,1-4.9,0-1.3.1-2.4.2-3.4,0-1,0-2,0-3,0-1,0-2.1-.2-3.3,0-2.9-.9-5.1-2.3-6.5-1.5-1.4-3.6-2-6.5-2h-6.6v26.7Z"/>
    <path class="st2" d="M1252.1,450c-.5,0-.9-.2-1.2-.5-.3-.3-.5-.7-.5-1.2v-42.2c0-.5.2-.9.5-1.2.3-.3.7-.5,1.2-.5h8.7c.5,0,.9.2,1.2.5.3.3.5.7.5,1.2v42.2c0,.5-.2.9-.5,1.2-.3.3-.7.5-1.2.5h-8.7Z"/>
    <path class="st2" d="M1291.9,450.6c-4.1,0-7.6-.7-10.6-2s-5.3-3.4-6.9-6c-1.6-2.6-2.5-5.8-2.7-9.6,0-1.9,0-3.8,0-5.9s0-4.1,0-6c.2-3.7,1.1-6.8,2.7-9.3,1.6-2.6,4-4.5,6.9-5.8,3-1.3,6.5-2,10.5-2s6.1.4,8.6,1.2c2.5.8,4.6,1.9,6.3,3.2,1.7,1.3,3,2.8,3.9,4.4.9,1.6,1.4,3.2,1.4,4.7,0,.4,0,.7-.4,1-.3.3-.6.4-1,.4h-9.5c-.5,0-.8,0-1.1-.2-.2-.2-.4-.4-.6-.7-.3-.6-.7-1.3-1.3-2s-1.4-1.3-2.4-1.8c-1-.5-2.3-.8-4-.8-2.5,0-4.4.6-5.8,1.9-1.4,1.3-2.2,3.4-2.3,6.2-.1,3.7-.1,7.5,0,11.3.1,3,.9,5.2,2.4,6.6,1.5,1.3,3.4,2,5.8,2s3.1-.3,4.4-.8c1.3-.6,2.3-1.4,3-2.6.7-1.2,1.1-2.7,1.1-4.6v-1.2h-6.1c-.5,0-.9-.2-1.2-.5-.3-.3-.5-.7-.5-1.2v-4.8c0-.5.2-.9.5-1.2.3-.3.7-.5,1.2-.5h16.4c.5,0,.9.2,1.2.5.3.3.5.7.5,1.2v7.4c0,3.7-.8,6.9-2.5,9.5-1.7,2.6-4.1,4.7-7.2,6.1-3.1,1.4-6.7,2.1-10.8,2.1Z"/>
    <path class="st2" d="M1323.1,450c-.5,0-.9-.2-1.2-.5-.3-.3-.5-.7-.5-1.2v-42.2c0-.5.2-.9.5-1.2.3-.3.7-.5,1.2-.5h8.7c.5,0,.9.2,1.2.5.3.3.5.7.5,1.2v42.2c0,.5-.2.9-.5,1.2-.3.3-.7.5-1.2.5h-8.7Z"/>
    <path class="st2" d="M1355.8,450c-.5,0-.9-.2-1.2-.5-.3-.3-.5-.7-.5-1.2v-33.6h-11.6c-.5,0-.9-.2-1.2-.5-.3-.3-.5-.7-.5-1.1v-6.9c0-.5.2-.9.5-1.2s.7-.5,1.2-.5h34.9c.5,0,.9.2,1.2.5.3.3.5.7.5,1.2v6.9c0,.4-.2.8-.5,1.1-.3.3-.7.5-1.2.5h-11.6v33.6c0,.5-.2.9-.5,1.2-.3.3-.7.5-1.2.5h-8.6Z"/>
    <path class="st2" d="M1379.5,450c-.3,0-.7-.1-.9-.4-.3-.3-.4-.6-.4-.9s0-.4,0-.6l15.3-41.7c.1-.5.4-.9.8-1.3.4-.4,1-.6,1.7-.6h9.6c.7,0,1.3.2,1.7.6.4.4.7.8.8,1.3l15.2,41.7c0,.2.1.4.1.6,0,.3-.1.7-.4.9-.3.3-.6.4-1,.4h-8c-.6,0-1.1-.2-1.5-.5-.3-.3-.5-.6-.6-.9l-2.5-6.6h-17.3l-2.5,6.6c0,.3-.3.6-.6.9-.3.3-.8.5-1.6.5h-8ZM1394.7,432.6h12.1l-6.1-17.1-6,17.1Z"/>
    <path class="st2" d="M1431.8,450c-.5,0-.9-.2-1.2-.5-.3-.3-.5-.7-.5-1.2v-42.2c0-.5.2-.9.5-1.2.3-.3.7-.5,1.2-.5h8.6c.4,0,.8.2,1.1.5.3.3.5.7.5,1.2v34h19.6c.5,0,.9.2,1.2.5.3.3.5.7.5,1.2v6.5c0,.5-.2.9-.5,1.2-.3.3-.7.5-1.2.5h-29.8Z"/>
    <path class="st2" d="M1494.6,450c-.5,0-.9-.2-1.2-.5-.3-.3-.5-.7-.5-1.2v-33.6h-11.6c-.5,0-.9-.2-1.2-.5-.3-.3-.5-.7-.5-1.1v-6.9c0-.5.2-.9.5-1.2s.7-.5,1.2-.5h34.9c.5,0,.9.2,1.2.5.3.3.5.7.5,1.2v6.9c0,.4-.2.8-.5,1.1-.3.3-.7.5-1.2.5h-11.6v33.6c0,.5-.2.9-.5,1.2-.3.3-.7.5-1.2.5h-8.6Z"/>
    <path class="st2" d="M1532.8,450c-.7,0-1.3-.2-1.8-.6-.4-.4-.7-.9-.8-1.5l-7.1-41.5c0,0,0-.2,0-.3v-.2c0-.3.1-.7.4-.9.3-.3.6-.4.9-.4h8c1.2,0,1.9.5,2,1.4l4.2,25.4,4.7-15c.1-.3.3-.7.6-1.1.3-.4.8-.6,1.5-.6h4.7c.7,0,1.3.2,1.6.6.3.4.5.8.6,1.1l4.7,14.9,4.2-25.3c.1-1,.8-1.4,2-1.4h8c.4,0,.7.1,1,.4.3.3.4.6.4.9v.5l-7.1,41.5c0,.6-.3,1.1-.8,1.5-.4.4-1,.6-1.8.6h-6.2c-.7,0-1.3-.2-1.7-.6-.4-.4-.6-.8-.8-1.1l-6.6-18.6-6.6,18.6c-.1.3-.4.7-.7,1.1-.4.4-.9.6-1.7.6h-6.2Z"/>
    <path class="st2" d="M1582.7,450c-.5,0-.9-.2-1.2-.5-.3-.3-.5-.7-.5-1.2v-42.2c0-.5.2-.9.5-1.2.3-.3.7-.5,1.2-.5h8.7c.5,0,.9.2,1.2.5.3.3.5.7.5,1.2v42.2c0,.5-.2.9-.5,1.2-.3.3-.7.5-1.2.5h-8.7Z"/>
    <path class="st2" d="M1605.3,450c-.5,0-.9-.2-1.2-.5-.3-.3-.5-.7-.5-1.2v-42.2c0-.5.2-.9.5-1.2.3-.3.7-.5,1.2-.5h6.9c.7,0,1.3.2,1.6.5.3.3.5.6.6.7l15.8,25v-24.6c0-.5.2-.9.5-1.2.3-.3.7-.5,1.2-.5h7.8c.5,0,.9.2,1.2.5.3.3.5.7.5,1.2v42.2c0,.4-.2.8-.5,1.1s-.7.5-1.2.5h-6.9c-.7,0-1.2-.2-1.5-.5-.3-.3-.5-.6-.6-.7l-15.8-24v23.6c0,.5-.2.9-.5,1.2-.3.3-.7.5-1.2.5h-7.8Z"/>
    <path class="st2" d="M1266.8,512.4c-2.8,0-5.1-.5-6.8-1.6-1.8-1.1-3.1-2.6-3.9-4.4-.9-1.9-1.3-4-1.4-6.4,0-1.3,0-2.6,0-4s0-2.8,0-4.1c0-2.4.6-4.5,1.4-6.4.9-1.9,2.2-3.4,3.9-4.4,1.8-1.1,4-1.6,6.8-1.6s4,.3,5.6.9c1.5.6,2.8,1.4,3.7,2.4,1,1,1.7,2.1,2.2,3.2.5,1.1.7,2.3.8,3.4,0,.3,0,.5-.3.7-.2.2-.4.3-.7.3h-.9c-.2,0-.5,0-.6-.2s-.3-.4-.4-.8c-.6-2.7-1.7-4.6-3.3-5.6s-3.6-1.5-6.1-1.5-5,.8-6.6,2.4c-1.6,1.6-2.5,4.1-2.6,7.6,0,2.5,0,5.1,0,7.7.1,3.5,1,6,2.6,7.6,1.6,1.6,3.9,2.4,6.6,2.4s4.5-.5,6.1-1.5c1.6-1,2.7-2.9,3.3-5.6,0-.4.2-.6.4-.8s.4-.2.6-.2h.9c.3,0,.5,0,.7.3.2.2.3.4.3.7,0,1.1-.3,2.2-.8,3.4-.5,1.1-1.2,2.2-2.2,3.2-1,1-2.2,1.8-3.7,2.4-1.5.6-3.4.9-5.6.9Z"/>
    <path class="st2" d="M1287.9,512c-.3,0-.6,0-.7-.3s-.3-.4-.3-.7v-30.1c0-.3,0-.6.3-.7s.4-.3.7-.3h.9c.3,0,.6,0,.7.3s.3.4.3.7v30.1c0,.3,0,.6-.3.7s-.4.3-.7.3h-.9Z"/>
    <path class="st2" d="M1307.7,512c-.3,0-.6,0-.7-.3s-.3-.4-.3-.7v-28.4h-9.1c-.3,0-.6,0-.7-.3s-.3-.4-.3-.7v-.7c0-.3,0-.6.3-.8s.4-.3.7-.3h21c.3,0,.6,0,.8.3s.3.4.3.8v.7c0,.3,0,.6-.3.7s-.4.3-.8.3h-9.1v28.4c0,.3,0,.6-.3.7s-.4.3-.8.3h-.8Z"/>
    <path class="st2" d="M1336.1,512c-.3,0-.6,0-.7-.3s-.3-.4-.3-.7v-11.3l-11.2-18.4c0,0,0-.2-.1-.3s0-.2,0-.3c0-.2,0-.5.3-.6s.4-.3.6-.3h.9c.2,0,.4,0,.6.2.2.1.3.3.5.5l10,16.2,10-16.2c.2-.2.3-.4.5-.5.2-.1.4-.2.6-.2h.9c.2,0,.5,0,.6.3s.3.4.3.6,0,.2,0,.3,0,.2-.1.3l-11.2,18.4v11.3c0,.3,0,.6-.3.7s-.4.3-.8.3h-.9Z"/>
    <path class="st2" d="M1369.2,512c-.3,0-.6,0-.7-.3s-.3-.4-.3-.7v-30.1c0-.3,0-.6.3-.8s.4-.3.7-.3h11.2c2.1,0,4,.4,5.6,1.1,1.6.7,2.8,1.8,3.7,3.2.9,1.4,1.3,3.2,1.3,5.2s-.4,3.8-1.3,5.2c-.9,1.4-2.1,2.5-3.7,3.2-1.6.7-3.4,1.1-5.6,1.1h-9.3v12.1c0,.3,0,.6-.3.7s-.4.3-.8.3h-.8ZM1371.1,496.1h9.1c2.7,0,4.6-.6,6-1.7,1.3-1.2,2-2.8,2-5s-.7-3.8-2-5c-1.3-1.2-3.3-1.7-6-1.7h-9.1v13.5Z"/>
    <path class="st2" d="M1399.2,512c-.3,0-.6,0-.7-.3s-.3-.4-.3-.7v-30.1c0-.3,0-.6.3-.7s.4-.3.7-.3h.9c.3,0,.6,0,.7.3s.3.4.3.7v28.4h15.9c.3,0,.6,0,.8.3s.3.4.3.8v.7c0,.3,0,.6-.3.7s-.4.3-.8.3h-17.7Z"/>
    <path class="st2" d="M1422.2,512c-.2,0-.5,0-.6-.3s-.3-.4-.3-.6,0-.3,0-.5l11.6-29.8c.1-.3.3-.5.5-.7.2-.2.5-.2.8-.2h1.6c.4,0,.7,0,.9.2.2.2.4.4.5.7l11.6,29.8c0,.2,0,.4,0,.5,0,.2,0,.5-.3.6s-.4.3-.6.3h-.9c-.3,0-.5,0-.7-.3-.2-.2-.3-.3-.3-.4l-2.8-7.4h-16.3l-2.8,7.4c0,.1-.1.3-.3.4-.2.2-.4.3-.7.3h-.9ZM1428.1,501.2h14.1l-7-18.1-7,18.1Z"/>
    <path class="st2" d="M1456.5,512c-.3,0-.6,0-.7-.3s-.3-.4-.3-.7v-30.1c0-.3,0-.6.3-.8s.4-.3.7-.3h1c.3,0,.5,0,.7.2.2.2.2.3.3.3l17,25.9v-25.4c0-.3,0-.6.3-.8s.4-.3.7-.3h.8c.3,0,.6,0,.8.3s.3.4.3.8v30.1c0,.3,0,.6-.3.8-.2.2-.4.3-.7.3h-1c-.3,0-.5,0-.7-.2-.1-.2-.2-.3-.3-.3l-16.9-25.8v25.4c0,.3,0,.6-.3.7s-.4.3-.8.3h-.8Z"/>
    <path class="st2" d="M1489.1,512c-.3,0-.6,0-.7-.3s-.3-.4-.3-.7v-30.1c0-.3,0-.6.3-.8s.4-.3.7-.3h1c.3,0,.5,0,.7.2.2.2.2.3.3.3l17,25.9v-25.4c0-.3,0-.6.3-.8s.4-.3.7-.3h.8c.3,0,.6,0,.8.3s.3.4.3.8v30.1c0,.3,0,.6-.3.8-.2.2-.4.3-.7.3h-1c-.3,0-.5,0-.7-.2-.1-.2-.2-.3-.3-.3l-16.9-25.8v25.4c0,.3,0,.6-.3.7s-.4.3-.8.3h-.8Z"/>
    <path class="st2" d="M1521.7,512c-.3,0-.6,0-.7-.3s-.3-.4-.3-.7v-30.1c0-.3,0-.6.3-.7s.4-.3.7-.3h.9c.3,0,.6,0,.7.3s.3.4.3.7v30.1c0,.3,0,.6-.3.7s-.4.3-.7.3h-.9Z"/>
    <path class="st2" d="M1534.4,512c-.3,0-.6,0-.7-.3s-.3-.4-.3-.7v-30.1c0-.3,0-.6.3-.8s.4-.3.7-.3h1c.3,0,.5,0,.7.2.2.2.2.3.3.3l17,25.9v-25.4c0-.3,0-.6.3-.8s.4-.3.7-.3h.8c.3,0,.6,0,.8.3s.3.4.3.8v30.1c0,.3,0,.6-.3.8-.2.2-.4.3-.7.3h-1c-.3,0-.5,0-.7-.2-.1-.2-.2-.3-.3-.3l-16.9-25.8v25.4c0,.3,0,.6-.3.7s-.4.3-.8.3h-.8Z"/>
    <path class="st2" d="M1577,512.4c-2.6,0-4.8-.5-6.6-1.5-1.8-1-3.2-2.5-4.1-4.3-.9-1.8-1.4-4-1.5-6.3,0-1.4,0-2.8,0-4.4s0-3,0-4.4c0-2.4.6-4.5,1.5-6.4.9-1.8,2.3-3.2,4.1-4.3,1.8-1,4-1.5,6.6-1.5s3.9.3,5.4.9c1.5.6,2.7,1.4,3.7,2.3.9.9,1.7,1.9,2.1,2.8.5.9.7,1.7.7,2.4,0,.3,0,.5-.2.7-.2.2-.4.3-.7.3h-1c-.3,0-.5,0-.6-.2s-.2-.4-.4-.7c-.3-.9-.8-1.9-1.5-2.7-.7-.9-1.7-1.6-2.9-2.2-1.2-.6-2.7-.9-4.6-.9-2.7,0-4.9.7-6.6,2.2-1.7,1.5-2.6,4-2.7,7.4,0,2.8,0,5.5,0,8.3.1,3.4,1,5.9,2.7,7.4,1.7,1.5,3.9,2.3,6.6,2.3s3.4-.3,4.9-1c1.4-.7,2.6-1.7,3.4-3.2.8-1.4,1.2-3.2,1.2-5.4v-2.3h-8c-.3,0-.6,0-.7-.3-.2-.2-.3-.5-.3-.8v-.6c0-.3,0-.6.3-.8s.4-.3.7-.3h9.8c.3,0,.6,0,.8.3.2.2.3.4.3.8v4c0,2.5-.5,4.6-1.4,6.5-1,1.9-2.4,3.3-4.2,4.4-1.9,1-4.1,1.6-6.7,1.6Z"/>
  </g>
  <g>
    <path class="st2" d="M1135.3,808.5c-.5,0-.9-.2-1.2-.5-.3-.3-.5-.7-.5-1.2v-7.7h-31.6c-.5,0-.9-.2-1.2-.5-.3-.3-.5-.7-.5-1.2v-43.4c0-.5.2-.9.5-1.2s.7-.5,1.2-.5h8.6c.5,0,.9.2,1.2.5.3.3.5.7.5,1.2v34.4h16.5v-34.4c0-.5.2-.9.5-1.2s.7-.5,1.2-.5h8.6c.5,0,.9.2,1.2.5.3.3.5.7.5,1.2v34.4h3.1c.5,0,.9.2,1.2.5.3.3.5.7.5,1.2v16.7c0,.5-.2.9-.5,1.2-.3.3-.7.5-1.2.5h-8.6Z"/>
    <path class="st2" d="M1155.8,799.1c-.5,0-.9-.2-1.2-.5-.3-.3-.5-.7-.5-1.2v-43.4c0-.5.2-.9.5-1.2.3-.3.7-.5,1.2-.5h8.6c.5,0,.9.2,1.2.5.3.3.5.7.5,1.2v26.9l19-27.3c.2-.4.5-.7.9-.9.4-.2.8-.4,1.4-.4h7.7c.4,0,.8.2,1.2.5.3.3.5.7.5,1.2v43.4c0,.5-.2.9-.5,1.2-.3.3-.7.5-1.2.5h-8.6c-.5,0-.9-.2-1.2-.5-.3-.3-.5-.7-.5-1.2v-25.9l-19,26.3c-.2.3-.5.6-.8.9-.3.3-.8.4-1.4.4h-7.7Z"/>
    <path class="st2" d="M1229.7,801.3c-.4,0-.8-.2-1.2-.5-.3-.3-.5-.7-.5-1.2v-4.6c-6.6,0-11.8-1.5-15.5-4.4-3.7-3-5.8-7.4-6.3-13.3,0-.4,0-.9,0-1.5,0-.6,0-1.3,0-2,0-.7,0-1.2,0-1.5.2-3.9,1.2-7.1,3-9.8,1.8-2.6,4.3-4.7,7.5-6,3.2-1.4,6.9-2,11.2-2v-3.9c0-.4.2-.8.5-1.2s.7-.5,1.2-.5h8.7c.4,0,.8.2,1.2.5.3.3.5.7.5,1.2v3.9c4.3,0,8.1.7,11.3,2,3.2,1.4,5.7,3.4,7.5,6,1.8,2.6,2.8,5.9,3,9.8,0,1,0,1.8.1,2.4,0,.6,0,1.5-.1,2.5-.4,5.9-2.5,10.3-6.2,13.3-3.7,3-8.9,4.4-15.6,4.4v4.6c0,.5-.2.9-.5,1.2-.3.3-.7.5-1.2.5h-8.7ZM1228.1,785.4v-21.2c-2.9,0-5.1.7-6.7,2-1.6,1.3-2.5,3.5-2.7,6.4,0,.8,0,1.5,0,2.2s0,1.4,0,2.2c.1,2.9,1,5.1,2.6,6.4,1.6,1.4,3.9,2,6.8,2ZM1240,785.4c2.9,0,5.2-.7,6.8-2,1.6-1.4,2.5-3.5,2.6-6.4,0-.3,0-.7,0-1.3v-1.7c0-.6,0-1,0-1.3-.2-2.9-1.1-5.1-2.7-6.4-1.6-1.3-3.8-2-6.7-2v21.2Z"/>
    <path class="st2" d="M1273.1,799.1c-.5,0-.9-.2-1.2-.5-.3-.3-.5-.7-.5-1.2v-43.4c0-.5.2-.9.5-1.2s.7-.5,1.2-.5h18.7c3.7,0,6.9.6,9.6,1.7,2.7,1.1,4.9,2.8,6.4,5.1,1.5,2.3,2.3,5.1,2.3,8.6s-.8,6.3-2.3,8.5c-1.5,2.2-3.7,3.9-6.4,4.9s-6,1.6-9.6,1.6h-7.9v14.6c0,.5-.2.9-.5,1.2-.3.3-.7.5-1.2.5h-9ZM1283.6,773.6h7.8c1.9,0,3.4-.5,4.6-1.5,1.1-1,1.7-2.5,1.7-4.5s-.5-3.1-1.5-4.3c-1-1.2-2.6-1.7-4.8-1.7h-7.8v12Z"/>
    <path class="st2" d="M1349.5,799.1c-.5,0-.9-.2-1.2-.5-.3-.3-.5-.7-.5-1.2v-34.4h-12.4v6.1c0,5.4-.3,10-.8,13.7-.5,3.8-1.4,6.8-2.7,9.2-1.3,2.4-3.2,4.1-5.5,5.2-2.4,1.1-5.4,1.7-9.2,1.8-.4,0-.8-.2-1.2-.5-.4-.3-.5-.7-.5-1.2v-7c0-1,.6-1.5,1.7-1.7,1.2-.2,2.3-.9,3.1-1.9s1.5-2.5,2.1-4.3c.5-1.8.9-4,1.1-6.5.2-2.5.3-5.3.3-8.4v-13.6c0-.5.2-.9.5-1.2.3-.3.7-.5,1.2-.5h32.6c.5,0,.9.2,1.2.5.3.3.5.7.5,1.2v43.4c0,.5-.2.9-.5,1.2-.3.3-.7.5-1.2.5h-8.6Z"/>
    <path class="st2" d="M1372.5,799.1c-.5,0-.9-.2-1.2-.5-.3-.3-.5-.7-.5-1.2v-43.4c0-.5.2-.9.5-1.2s.7-.5,1.2-.5h8.6c.5,0,.9.2,1.2.5.3.3.5.7.5,1.2v14.4h6.3c5.7,0,10.1,1.3,13.3,3.8,3.2,2.5,4.7,6.3,4.7,11.4s-.7,5.8-2.1,8.1c-1.4,2.4-3.4,4.2-6.1,5.5-2.7,1.3-6,1.9-9.9,1.9h-16.6ZM1382.8,789.8h6.1c1.9,0,3.4-.6,4.4-1.8s1.5-2.7,1.5-4.5-.5-3.5-1.6-4.5c-1-1-2.5-1.5-4.3-1.5h-6.1v12.2ZM1413.9,799.1c-.5,0-.9-.2-1.2-.5-.3-.3-.5-.7-.5-1.2v-43.4c0-.5.2-.9.5-1.2s.7-.5,1.2-.5h8.9c.5,0,.9.2,1.2.5.3.3.5.7.5,1.2v43.4c0,.5-.2.9-.5,1.2s-.7.5-1.2.5h-8.9Z"/>
    <path class="st2" d="M1437.2,799.1c-.5,0-.9-.2-1.2-.5-.3-.3-.5-.7-.5-1.2v-43.4c0-.5.2-.9.5-1.2s.7-.5,1.2-.5h8.6c.5,0,.9.2,1.2.5.3.3.5.7.5,1.2v16.1h4.1l9.9-16.5c.2-.4.5-.7.9-.9.4-.2.9-.4,1.5-.4h9.6c.4,0,.8.1,1.1.4s.4.6.4,1,0,.5-.3.8l-12.4,20.3,13.6,22c.1.2.2.4.2.7,0,.4-.1.8-.4,1.1-.3.3-.7.4-1.1.4h-9.9c-.7,0-1.2-.2-1.6-.5-.3-.3-.6-.6-.8-.8l-10.4-17h-4.5v16.6c0,.5-.2.9-.5,1.2s-.7.5-1.2.5h-8.6ZM1468.4,808.5c-.4,0-.8-.2-1.2-.5-.3-.3-.5-.7-.5-1.2v-7.7h-2l-2.8-10.7h15.1c.5,0,.9.2,1.2.5s.5.7.5,1.2v16.7c0,.5-.2.9-.5,1.2-.3.3-.7.5-1.2.5h-8.6Z"/>
    <path class="st2" d="M1521.2,799.8c-4.2,0-7.8-.7-10.9-2.1-3-1.4-5.3-3.4-7-6.1-1.7-2.7-2.6-6-2.8-9.9,0-1.8,0-3.8,0-5.9s0-4.1,0-6c.2-3.9,1.1-7.2,2.8-9.9,1.7-2.7,4.1-4.7,7.1-6.1s6.6-2.1,10.8-2.1,5.7.4,8.1,1.1c2.5.7,4.7,1.8,6.5,3.2,1.9,1.4,3.3,3.1,4.4,5.1,1,2,1.6,4.2,1.6,6.7,0,.4,0,.7-.4,1-.3.3-.6.4-1,.4h-9c-.6,0-1-.1-1.3-.4-.3-.2-.6-.7-.8-1.4-.6-2.4-1.6-4-3-4.8-1.4-.9-3.1-1.3-5.2-1.3s-4.4.7-5.8,2c-1.4,1.4-2.2,3.6-2.3,6.8-.1,3.7-.1,7.4,0,11.2.1,3.2.9,5.4,2.3,6.8s3.4,2,5.8,2,3.8-.4,5.2-1.3c1.4-.9,2.4-2.5,3-4.8.2-.7.4-1.1.8-1.4.3-.2.8-.4,1.4-.4h9c.4,0,.7.1,1,.4.3.3.4.6.4,1,0,2.5-.6,4.7-1.6,6.7-1,2-2.5,3.7-4.4,5.1-1.9,1.4-4.1,2.5-6.5,3.2-2.5.7-5.2,1.1-8.1,1.1Z"/>
    <path class="st2" d="M1552.3,799.1c-.5,0-.9-.2-1.2-.5-.3-.3-.5-.7-.5-1.2v-43.4c0-.5.2-.9.5-1.2s.7-.5,1.2-.5h8.6c.5,0,.9.2,1.2.5.3.3.5.7.5,1.2v14.4h6.3c5.7,0,10.1,1.3,13.3,3.8,3.2,2.5,4.7,6.3,4.7,11.4s-.7,5.8-2.1,8.1c-1.4,2.4-3.4,4.2-6.1,5.5-2.7,1.3-6,1.9-9.9,1.9h-16.6ZM1562.6,789.8h6.1c1.9,0,3.4-.6,4.4-1.8s1.5-2.7,1.5-4.5-.5-3.5-1.6-4.5c-1-1-2.5-1.5-4.3-1.5h-6.1v12.2ZM1593.7,799.1c-.5,0-.9-.2-1.2-.5-.3-.3-.5-.7-.5-1.2v-43.4c0-.5.2-.9.5-1.2s.7-.5,1.2-.5h8.9c.5,0,.9.2,1.2.5.3.3.5.7.5,1.2v43.4c0,.5-.2.9-.5,1.2s-.7.5-1.2.5h-8.9Z"/>
    <path class="st2" d="M1617,799.1c-.5,0-.9-.2-1.2-.5-.3-.3-.5-.7-.5-1.2v-43.4c0-.5.2-.9.5-1.2s.7-.5,1.2-.5h8.6c.5,0,.9.2,1.2.5.3.3.5.7.5,1.2v16.1h16.5v-16.1c0-.5.2-.9.5-1.2s.7-.5,1.2-.5h8.6c.5,0,.9.2,1.2.5.3.3.5.7.5,1.2v43.4c0,.5-.2.9-.5,1.2-.3.3-.7.5-1.2.5h-8.6c-.5,0-.9-.2-1.2-.5-.3-.3-.5-.7-.5-1.2v-16.6h-16.5v16.6c0,.5-.2.9-.5,1.2s-.7.5-1.2.5h-8.6ZM1650.2,808.5c-.5,0-.9-.2-1.2-.5-.3-.3-.5-.7-.5-1.2v-7.7h-2l-2.8-10.7h15.1c.5,0,.9.2,1.2.5.3.3.5.7.5,1.2v16.7c0,.5-.2.9-.5,1.2-.3.3-.7.5-1.2.5h-8.6Z"/>
    <path class="st2" d="M1666.4,799.1c-.4,0-.7-.1-1-.4-.3-.3-.4-.6-.4-1s0-.4,0-.6l15.7-42.9c.1-.5.4-.9.8-1.3.4-.4,1-.6,1.8-.6h9.9c.8,0,1.3.2,1.8.6.4.4.7.8.8,1.3l15.6,42.9c0,.2.1.4.1.6,0,.4-.1.7-.4,1s-.6.4-1,.4h-8.2c-.7,0-1.2-.2-1.5-.5-.3-.3-.5-.6-.6-.9l-2.6-6.8h-17.8l-2.5,6.8c0,.3-.3.6-.6.9-.3.3-.8.5-1.6.5h-8.2ZM1682.1,781.3h12.4l-6.3-17.6-6.1,17.6Z"/>
    <path class="st2" d="M1720.2,799.1c-.5,0-.9-.2-1.2-.5-.3-.3-.5-.7-.5-1.2v-43.4c0-.5.2-.9.5-1.2s.7-.5,1.2-.5h18.7c3.7,0,6.9.6,9.6,1.7,2.7,1.1,4.9,2.8,6.4,5.1,1.5,2.3,2.3,5.1,2.3,8.6s-.8,6.3-2.3,8.5c-1.5,2.2-3.7,3.9-6.4,4.9s-6,1.6-9.6,1.6h-7.9v14.6c0,.5-.2.9-.5,1.2-.3.3-.7.5-1.2.5h-9ZM1730.8,773.6h7.8c1.9,0,3.4-.5,4.6-1.5,1.1-1,1.7-2.5,1.7-4.5s-.5-3.1-1.5-4.3c-1-1.2-2.6-1.7-4.8-1.7h-7.8v12Z"/>
    <path class="st2" d="M1193.7,862.9c-.3,0-.6,0-.8-.3-.2-.2-.3-.4-.3-.8v-31c0-.3,0-.6.3-.8.2-.2.4-.3.8-.3h.9c.3,0,.6,0,.8.3s.3.5.3.8v13.8h6.4l9-14.2c.2-.3.4-.4.6-.5.3-.1.6-.2.9-.2h.8c.3,0,.6,0,.7.3.1.2.2.4.2.7s0,.4-.2.6l-9.2,14.5,10.2,15.4c0,0,0,.3,0,.5s-.1.6-.3.8c-.2.2-.5.3-.8.3h-.8c-.3,0-.5,0-.7-.2-.2-.1-.3-.3-.4-.4l-9.9-14.7h-6.6v14.3c0,.3,0,.6-.3.8s-.5.3-.8.3h-.9ZM1216.3,869.5c-.3,0-.6,0-.8-.3s-.3-.4-.3-.8v-5.6h-2l-1.4-2.8h5.3c.3,0,.6,0,.8.3.2.2.3.4.3.8v7.4c0,.3,0,.6-.3.8s-.5.3-.8.3h-.9Z"/>
    <path class="st2" d="M1219.6,862.9c-.3,0-.5,0-.7-.3s-.3-.4-.3-.7,0-.3,0-.5l12-30.7c.1-.3.3-.6.5-.7.2-.2.5-.2.9-.2h1.6c.4,0,.7,0,.9.2.2.2.4.4.5.7l12,30.7c0,.2,0,.4,0,.5,0,.3,0,.5-.3.7s-.4.3-.7.3h-.9c-.3,0-.6,0-.7-.3-.2-.2-.3-.3-.3-.4l-2.9-7.6h-16.7l-2.9,7.6c0,.1-.1.3-.3.4-.2.2-.4.3-.7.3h-.9ZM1225.6,851.8h14.5l-7.2-18.6-7.2,18.6Z"/>
    <path class="st2" d="M1272.8,862.9c-.3,0-.6,0-.8-.3-.2-.2-.3-.4-.3-.8v-29.2h-13v9c0,3.8-.2,7-.6,9.6-.4,2.6-1,4.8-1.9,6.5-.8,1.7-1.8,2.9-3,3.7-1.2.8-2.6,1.3-4.2,1.4-.3,0-.6,0-.8-.3-.2-.2-.3-.5-.3-.8v-.9c0-.6.3-1,.9-1,1-.2,1.9-.6,2.8-1.3.8-.7,1.6-1.7,2.2-3.1.6-1.4,1.1-3.3,1.4-5.6s.5-5.2.5-8.6v-10.4c0-.3,0-.6.3-.8s.4-.3.8-.3h16.8c.3,0,.6,0,.8.3s.3.5.3.8v31c0,.3,0,.6-.3.8s-.5.3-.8.3h-.9Z"/>
    <path class="st2" d="M1280.1,862.9c-.3,0-.5,0-.7-.3s-.3-.4-.3-.7,0-.3,0-.5l12-30.7c.1-.3.3-.6.5-.7.2-.2.5-.2.9-.2h1.6c.4,0,.7,0,.9.2.2.2.4.4.5.7l12,30.7c0,.2,0,.4,0,.5,0,.3,0,.5-.3.7s-.4.3-.7.3h-.9c-.3,0-.6,0-.7-.3-.2-.2-.3-.3-.3-.4l-2.9-7.6h-16.7l-2.9,7.6c0,.1-.1.3-.3.4-.2.2-.4.3-.7.3h-.9ZM1286.1,851.8h14.5l-7.2-18.6-7.2,18.6Z"/>
    <path class="st2" d="M1313,862.9c-.3,0-.6,0-.8-.3-.2-.2-.3-.4-.3-.8v-31c0-.3,0-.6.3-.8.2-.2.4-.3.8-.3h.9c.3,0,.6,0,.8.3s.3.5.3.8v13.8h18.2v-13.8c0-.3,0-.6.3-.8s.4-.3.8-.3h.9c.3,0,.6,0,.8.3s.3.5.3.8v31c0,.3,0,.6-.3.8s-.5.3-.8.3h-.9c-.3,0-.6,0-.8-.3s-.3-.4-.3-.8v-14.3h-18.2v14.3c0,.3,0,.6-.3.8s-.5.3-.8.3h-.9Z"/>
    <path class="st2" d="M1344.9,862.9c-.3,0-.6,0-.8-.3-.2-.2-.3-.4-.3-.8v-31c0-.3,0-.6.3-.8.2-.2.4-.3.8-.3h.9c.3,0,.6,0,.8.3s.3.4.3.8v12.1h6.8c3.2,0,5.6.8,7.4,2.5,1.7,1.7,2.6,4.1,2.6,7.4s-.3,3.2-1,4.8-1.8,2.8-3.2,3.9-3.3,1.5-5.6,1.5h-8.7ZM1346.9,860.1h6.3c2.3,0,4.2-.7,5.5-2,1.3-1.4,2-3.2,2-5.4s-.6-4-1.8-5.2c-1.2-1.2-3.1-1.7-5.6-1.7h-6.3v14.3ZM1369.5,862.9c-.3,0-.6,0-.8-.3s-.3-.4-.3-.8v-31c0-.3,0-.6.3-.8s.4-.3.8-.3h.9c.3,0,.6,0,.8.3.2.2.3.4.3.8v31c0,.3,0,.6-.3.8-.2.2-.4.3-.8.3h-.9Z"/>
    <path class="st2" d="M1388.9,862.9c-.3,0-.6-.1-.8-.3-.2-.2-.3-.5-.3-.8s0-.4,0-.5l10.2-15.4-9.2-14.5c-.2-.3-.2-.5-.2-.6,0-.3,0-.5.2-.7.1-.2.4-.3.7-.3h.7c.4,0,.7,0,.9.2s.5.3.6.5l9,14.2h6v-13.9c0-.3,0-.6.3-.8s.4-.3.8-.3h.9c.3,0,.6,0,.8.3s.3.4.3.8v13.9h5.9l9-14.2c.2-.3.4-.4.6-.5.3-.1.6-.2.9-.2h.8c.3,0,.6,0,.7.3s.2.4.2.7,0,.4-.2.6l-9.2,14.5,10.2,15.4c0,0,0,.3,0,.5s-.1.6-.3.8c-.2.2-.5.3-.8.3h-.8c-.3,0-.5,0-.7-.2-.2-.1-.3-.3-.4-.4l-9.9-14.7h-6.1v14.4c0,.3,0,.5-.3.7s-.4.3-.8.3h-.9c-.3,0-.6,0-.8-.3s-.3-.4-.3-.8v-14.3h-6.2l-9.8,14.7c-.1.2-.3.3-.4.4-.2.1-.4.2-.7.2h-.8Z"/>
    <path class="st2" d="M1445.4,863.4c-2.6,0-4.8-.5-6.7-1.4-1.8-.9-3.2-2.4-4.2-4.3-1-1.9-1.5-4.4-1.6-7.4,0-1.4,0-2.7,0-4s0-2.6,0-4c0-2.9.7-5.4,1.7-7.3,1-1.9,2.5-3.4,4.3-4.3,1.8-.9,4-1.4,6.5-1.4s4.6.5,6.5,1.4c1.8.9,3.3,2.4,4.3,4.3,1.1,1.9,1.6,4.4,1.7,7.3,0,1.4,0,2.7,0,4s0,2.6,0,4c0,3-.6,5.4-1.6,7.4-1,1.9-2.4,3.4-4.2,4.3-1.8.9-4,1.4-6.7,1.4ZM1445.4,860.5c2.7,0,4.9-.8,6.7-2.5s2.7-4.3,2.8-8c0-1.4,0-2.7,0-3.7s0-2.3,0-3.7c0-2.5-.5-4.5-1.3-6-.8-1.5-2-2.7-3.4-3.4s-3-1.1-4.8-1.1-3.3.4-4.8,1.1-2.5,1.8-3.4,3.4c-.8,1.5-1.3,3.5-1.4,6,0,1.4,0,2.7,0,3.7s0,2.3,0,3.7c.1,3.7,1.1,6.3,2.8,8,1.8,1.6,4,2.5,6.7,2.5Z"/>
    <path class="st2" d="M1475.5,863.4c-2.9,0-5.2-.6-7-1.7-1.8-1.1-3.2-2.6-4-4.6-.9-1.9-1.4-4.1-1.5-6.6,0-1.3,0-2.7,0-4.2s0-2.9,0-4.3c0-2.5.6-4.7,1.5-6.6.9-1.9,2.2-3.5,4-4.6,1.8-1.1,4.2-1.7,7-1.7s4.1.3,5.7.9c1.6.6,2.9,1.5,3.9,2.5,1,1,1.7,2.1,2.2,3.3.5,1.2.8,2.3.8,3.5,0,.3,0,.5-.3.7-.2.2-.4.3-.7.3h-.9c-.3,0-.5,0-.7-.2s-.3-.4-.4-.8c-.6-2.8-1.7-4.7-3.4-5.8s-3.7-1.6-6.3-1.6-5.1.8-6.8,2.4-2.6,4.2-2.7,7.8c0,2.6,0,5.2,0,7.9.1,3.6,1,6.2,2.7,7.8s4,2.4,6.8,2.4,4.6-.5,6.3-1.6,2.8-3,3.4-5.8c0-.4.2-.6.4-.8.2-.1.4-.2.7-.2h.9c.3,0,.5,0,.7.3.2.2.3.4.3.7,0,1.1-.3,2.3-.8,3.5s-1.2,2.3-2.2,3.3c-1,1-2.3,1.9-3.9,2.5-1.6.6-3.5.9-5.7.9Z"/>
    <path class="st2" d="M1495,862.9c-.3,0-.6,0-.8-.3-.2-.2-.3-.4-.3-.8v-31c0-.3,0-.6.3-.8.2-.2.4-.3.8-.3h22.1c.3,0,.6,0,.8.3s.3.5.3.8v31c0,.3,0,.6-.3.8s-.5.3-.8.3h-.9c-.3,0-.6,0-.8-.3s-.3-.4-.3-.8v-29.2h-18.2v29.2c0,.3,0,.6-.3.8s-.5.3-.8.3h-.9Z"/>
    <path class="st2" d="M1523.5,862.9c-.3,0-.5,0-.7-.3s-.3-.4-.3-.7,0-.3,0-.5l12-30.7c.1-.3.3-.6.5-.7.2-.2.5-.2.9-.2h1.6c.4,0,.7,0,.9.2.2.2.4.4.5.7l12,30.7c0,.2,0,.4,0,.5,0,.3,0,.5-.3.7s-.4.3-.7.3h-.9c-.3,0-.6,0-.7-.3-.2-.2-.3-.3-.3-.4l-2.9-7.6h-16.7l-2.9,7.6c0,.1-.1.3-.3.4-.2.2-.4.3-.7.3h-.9ZM1529.5,851.8h14.5l-7.2-18.6-7.2,18.6Z"/>
    <path class="st2" d="M1556.4,862.9c-.3,0-.6,0-.8-.3-.2-.2-.3-.4-.3-.8v-31c0-.3,0-.6.3-.8.2-.2.4-.3.8-.3h11.5c2.2,0,4.1.4,5.7,1.1,1.6.7,2.9,1.8,3.8,3.3.9,1.4,1.3,3.2,1.3,5.4s-.4,3.9-1.3,5.4c-.9,1.4-2.2,2.5-3.8,3.3-1.6.7-3.5,1.1-5.7,1.1h-9.5v12.5c0,.3,0,.6-.3.8s-.5.3-.8.3h-.9ZM1558.4,846.5h9.3c2.7,0,4.8-.6,6.1-1.8,1.3-1.2,2-2.9,2-5.2s-.7-4-2-5.2c-1.3-1.2-3.4-1.8-6.1-1.8h-9.3v13.9Z"/>
    <path class="st2" d="M1605.2,862.9c-.3,0-.6,0-.8-.3-.2-.2-.3-.4-.3-.8v-29.2h-13v9c0,3.8-.2,7-.6,9.6-.4,2.6-1,4.8-1.9,6.5-.8,1.7-1.8,2.9-3,3.7-1.2.8-2.6,1.3-4.2,1.4-.3,0-.6,0-.8-.3-.2-.2-.3-.5-.3-.8v-.9c0-.6.3-1,.9-1,1-.2,1.9-.6,2.8-1.3.8-.7,1.6-1.7,2.2-3.1.6-1.4,1.1-3.3,1.4-5.6s.5-5.2.5-8.6v-10.4c0-.3,0-.6.3-.8s.4-.3.8-.3h16.8c.3,0,.6,0,.8.3s.3.5.3.8v31c0,.3,0,.6-.3.8s-.5.3-.8.3h-.9Z"/>
    <path class="st2" d="M1612.5,862.9c-.3,0-.5,0-.7-.3s-.3-.4-.3-.7,0-.3,0-.5l12-30.7c.1-.3.3-.6.5-.7.2-.2.5-.2.9-.2h1.6c.4,0,.7,0,.9.2.2.2.4.4.5.7l12,30.7c0,.2,0,.4,0,.5,0,.3,0,.5-.3.7s-.4.3-.7.3h-.9c-.3,0-.6,0-.7-.3-.2-.2-.3-.3-.3-.4l-2.9-7.6h-16.7l-2.9,7.6c0,.1-.1.3-.3.4-.2.2-.4.3-.7.3h-.9ZM1618.5,851.8h14.5l-7.2-18.6-7.2,18.6Z"/>
    <path class="st2" d="M1653.9,855.1l-13.1-23.7c0-.2-.1-.4-.1-.6s0-.5.3-.7c.2-.2.4-.3.7-.3h1c.2,0,.4,0,.6.2.2.1.3.3.5.5l12,21.4-1.7,3.2ZM1645.3,862.9c-.3,0-.6,0-.8-.3s-.3-.4-.3-.8v-.7c0-.3,0-.6.3-.8.2-.2.4-.3.8-.3h1.6c1.1,0,2-.3,2.8-.9.8-.6,1.5-1.4,2.2-2.6.7-1.2,1.5-2.7,2.3-4.6l9.4-21.4c0-.3.2-.4.4-.5.2-.1.4-.2.6-.2h1c.3,0,.5,0,.7.3.2.2.3.4.3.7s0,.2,0,.3c0,0,0,.2-.1.3l-9.7,21.9c-.7,1.6-1.4,3-2,4.2-.6,1.2-1.3,2.2-2,3-.7.8-1.5,1.4-2.4,1.8-.9.4-2,.6-3.3.6h-1.6Z"/>
  </g>
</svg>