<?xml version="1.0" encoding="UTF-8"?>
<svg id="menu_straight_bg" xmlns="http://www.w3.org/2000/svg" version="1.1" xmlns:xlink="http://www.w3.org/1999/xlink" viewBox="0 0 1400 300">
  <!-- Generator: Adobe Illustrator 29.8.3, SVG Export Plug-In . SVG Version: 2.1.1 Build 3)  -->
  <defs>
    <style>
      .st0 {
        fill: aqua;
      }

      .st1 {
        stroke-width: 8px;
      }

      .st1, .st2, .st3, .st4, .st5, .st6, .st7, .st8 {
        fill: none;
      }

      .st1, .st2, .st4, .st5, .st6, .st7, .st8 {
        stroke-linecap: round;
      }

      .st1, .st2, .st4, .st5, .st6, .st8 {
        stroke-miterlimit: 10;
      }

      .st1, .st6 {
        stroke: #4d4e4e;
      }

      .st2 {
        stroke: #ff9100;
      }

      .st2, .st4, .st5, .st6, .st8 {
        stroke-width: 5px;
      }

      .st9 {
        clip-path: url(#clippath-1);
      }

      .st4 {
        stroke: #f0f;
      }

      .st5 {
        stroke: #3386ff;
      }

      .st10 {
        fill: #f7931e;
      }

      .st11 {
        fill: #37f9ff;
      }

      .st7 {
        stroke: #37f9ff;
        stroke-linejoin: round;
        stroke-width: 2px;
      }

      .st12 {
        clip-path: url(#clippath);
      }

      .st8 {
        stroke: aqua;
      }
    </style>
    <clipPath id="clippath">
      <polygon class="st3" points="71.9 143.4 71.9 143.4 656.4 143.4 656.4 196.6 71.9 196.6 71.9 143.4"/>
    </clipPath>
    <clipPath id="clippath-1">
      <polygon class="st3" points="1324.8 143.4 1324.8 143.4 740.3 143.4 740.3 196.6 1324.8 196.6 1324.8 143.4"/>
    </clipPath>
  </defs>
  <line class="st6" x1="229.1" y1="105.5" x2="375.4" y2="105.5"/>
  <line class="st6" x1="420.3" y1="105.5" x2="566.7" y2="105.5"/>
  <line class="st6" x1="614.5" y1="105.5" x2="760.9" y2="105.5"/>
  <line class="st6" x1="809.7" y1="105.5" x2="956.1" y2="105.5"/>
  <line class="st8" x1="229.1" y1="105.5" x2="302.2" y2="105.5"/>
  <line class="st6" x1="420.3" y1="105.5" x2="566.7" y2="105.5"/>
  <line class="st2" x1="420.3" y1="105.5" x2="471.1" y2="105.5"/>
  <line class="st5" x1="614.5" y1="105.5" x2="715.5" y2="105.5"/>
  <line class="st4" x1="809.7" y1="105.5" x2="850.2" y2="105.5"/>
  <line class="st6" x1="229.1" y1="105.5" x2="375.4" y2="105.5"/>
  <line class="st6" x1="420.3" y1="105.5" x2="566.7" y2="105.5"/>
  <line class="st6" x1="614.5" y1="105.5" x2="760.9" y2="105.5"/>
  <line class="st6" x1="809.7" y1="105.5" x2="956.1" y2="105.5"/>
  <line class="st6" x1="420.3" y1="105.5" x2="566.7" y2="105.5"/>
  <line class="st6" x1="1001.2" y1="105.5" x2="1147.6" y2="105.5"/>
  <line class="st4" x1="1001.2" y1="105.5" x2="1041.7" y2="105.5"/>
  <line class="st6" x1="1001.2" y1="105.5" x2="1147.6" y2="105.5"/>
  <path class="st0" d="M95.2,96.3c-.2,0-.3,0-.5-.2s-.2-.3-.2-.5v-1.9c-1.3-.1-2.5-.4-3.4-1-.9-.5-1.6-1.2-2.1-1.9s-.7-1.5-.8-2.3c0-.2,0-.3.2-.4s.3-.2.4-.2h2.4c.2,0,.4,0,.5.2s.2.2.3.4c.1.3.3.7.6,1,.3.3.7.6,1.3.8s1.2.3,2.1.3c1.3,0,2.3-.2,2.9-.7.6-.4,1-1,1-1.8s-.2-.9-.5-1.3c-.3-.3-.9-.6-1.6-.9-.7-.3-1.7-.5-2.9-.8-1.3-.3-2.5-.7-3.4-1.2s-1.6-1.1-2.1-1.8c-.5-.7-.7-1.6-.7-2.7s.5-2.6,1.5-3.6,2.4-1.6,4.2-1.8v-1.9c0-.2,0-.3.2-.5s.3-.2.5-.2h1.7c.2,0,.3,0,.5.2.1.1.2.3.2.5v1.9c1.2.2,2.3.6,3.1,1.1.8.6,1.5,1.2,1.9,1.9.4.7.7,1.4.7,2,0,.2,0,.3-.2.4s-.2.2-.4.2h-2.5c-.2,0-.3,0-.5-.1-.2,0-.3-.2-.4-.4,0-.6-.4-1.1-1-1.4-.6-.4-1.4-.6-2.3-.6s-1.8.2-2.4.6c-.6.4-.9.9-.9,1.7s.2.9.4,1.3.8.6,1.4.9,1.6.5,2.7.8c1.6.3,2.8.8,3.8,1.2,1,.5,1.7,1,2.2,1.7.5.7.7,1.6.7,2.7s-.3,2-.8,2.8c-.5.8-1.2,1.4-2.2,1.9s-2.1.8-3.3.9v1.9c0,.2,0,.3-.2.5-.1.1-.3.2-.5.2h-1.7,0Z"/>
  <g id="layer1">
    <path id="path23303" class="st10" d="M1210.2,72.2c-6.6,0-12,5.4-12,12s5.4,12,12,12,12-5.4,12-12-.5-1.1-1.1-1.1h0c-.6,0-1.1.5-1.1,1.1h0c0,5.4-4.4,9.8-9.8,9.8s-9.8-4.4-9.8-9.8,4.4-9.8,9.8-9.8,1.1-.5,1.1-1.1-.5-1.1-1.1-1.1h0ZM1214.3,73.1c-.4,0-.8.3-1,.7-.2.6,0,1.2.6,1.4,0,0,0,0,0,0,.6.2,1.2,0,1.4-.6.2-.6,0-1.2-.6-1.4,0,0,0,0,0,0-.1,0-.3,0-.4,0h0ZM1217.8,75.4c-.3,0-.6.1-.8.3-.4.4-.4,1.1,0,1.5,0,0,0,0,0,0,.4.4,1.1.4,1.5,0,.4-.4.4-1.1,0-1.5,0,0,0,0,0,0-.2-.2-.5-.3-.8-.3h0ZM1210.2,76.6c-.6,0-1.1.5-1.1,1.1h0v6.5c0,.4.2.8.6,1l4.3,2.2c.5.3,1.2,0,1.5-.5h0c.3-.5,0-1.2-.5-1.5h0l-3.8-1.9v-5.9c0-.6-.5-1.1-1.1-1.1h0ZM1220.2,78.9c-.1,0-.3,0-.4,0-.6.2-.8.9-.6,1.4,0,0,0,0,0,0,.2.6.9.8,1.4.6.6-.2.8-.9.6-1.4,0,0,0,0,0,0-.2-.4-.6-.7-1-.7h0Z"/>
  </g>
  <g>
    <g id="_Mirror_Repeat_">
      <g class="st12">
        <g>
          <g>
            <path class="st11" d="M647.9,157.6c2.1-5,5-9.7,8.5-13.9l-56.5.4,8.8,12.9,39.2.5h0Z"/>
            <path class="st11" d="M644.1,171.5l-25.7-.2,5.5,8,19.8.6c0-2.9.1-5.7.5-8.4h0Z"/>
            <path class="st11" d="M643.7,181.4l-18.8-.6,3.4,4.9,15.8.9c-.1-1-.3-2.1-.3-3.1,0-.7,0-1.4-.1-2.1Z"/>
            <path class="st11" d="M610.8,160.1l6.3,9.2,27.4.2c.5-3.1,1.3-6,2.3-8.9l-36-.5h0Z"/>
          </g>
          <path class="st7" d="M641,195.6h-14.6c-3.9-.2-7.5-2.2-9.6-5.4l-23.3-36.1c-3.8-5.5-10-8.7-16.7-8.6-73,.6-503-1-503.9-1"/>
        </g>
      </g>
    </g>
    <g id="_Mirror_Repeat_-2">
      <g class="st9">
        <g>
          <g>
            <path class="st11" d="M748.8,157.6c-2.1-5-5-9.7-8.5-13.9l56.5.4-8.8,12.9-39.2.5h0Z"/>
            <path class="st11" d="M752.6,171.5l25.7-.2-5.5,8-19.8.6c0-2.9-.1-5.7-.5-8.4h0Z"/>
            <path class="st11" d="M753,181.4l18.8-.6-3.4,4.9-15.8.9c.1-1,.3-2.1.3-3.1,0-.7,0-1.4.1-2.1Z"/>
            <path class="st11" d="M785.9,160.1l-6.3,9.2-27.4.2c-.5-3.1-1.3-6-2.3-8.9l36-.5h0Z"/>
          </g>
          <path class="st7" d="M755.7,195.6h14.6c3.9-.2,7.5-2.2,9.6-5.4l23.3-36.1c3.8-5.5,10-8.7,16.7-8.6,73,.6,503-1,503.9-1"/>
        </g>
      </g>
    </g>
  </g>
  <circle class="st1" cx="697.8" cy="180.2" r="38.5"/>
</svg>